<svg width="100" height="59" viewBox="0 0 100 59" fill="none" xmlns="http://www.w3.org/2000/svg">
<rect width="100" height="59" rx="29" fill="#AD7FFB"/>
<line x1="60" y1="37.5" x2="85" y2="37.5" stroke="white"/>
<line x1="60" y1="21.5" x2="85" y2="21.5" stroke="white"/>
<line x1="63" y1="29.5" x2="82" y2="29.5" stroke="white"/>
<path d="M55.5 30.5C55.5 42.3741 45.6503 52 33.5 52C21.3497 52 11.5 42.3741 11.5 30.5C11.5 18.6259 21.3497 9 33.5 9C45.6503 9 55.5 18.6259 55.5 30.5Z" fill="#FDFDFD"/>
<path d="M33.5 9.5C45.385 9.5 55 18.9128 55 30.5C55 42.0872 45.385 51.5 33.5 51.5C21.615 51.5 12 42.0872 12 30.5C12 18.9128 21.615 9.5 33.5 9.5Z" stroke="#AD7FFB" stroke-opacity="0.4"/>
</svg>
